<svg width="14" height="22" viewBox="0 0 14 22" fill="none" xmlns="http://www.w3.org/2000/svg">
<path d="M6.99978 13.1205C7.9572 13.1194 8.875 12.7386 9.55208 12.0617C10.229 11.3846 10.6098 10.4668 10.6109 9.50939V4.45383C10.6109 3.16366 9.92268 1.97153 8.80534 1.32653C7.688 0.681522 6.31157 0.681522 5.19423 1.32653C4.07689 1.97153 3.38867 3.1637 3.38867 4.45383V9.50939C3.3898 10.4668 3.77058 11.3846 4.44749 12.0617C5.12456 12.7386 6.04236 13.1194 6.99978 13.1205Z" fill="#CFCDCD"/>
<path d="M12.7778 8.06445C12.5863 8.06445 12.4025 8.14055 12.2671 8.27596C12.1316 8.41138 12.0556 8.59516 12.0556 8.78668V9.5089C12.0556 11.3151 11.092 12.9841 9.52778 13.8872C7.96357 14.7902 6.03643 14.7902 4.47222 13.8872C2.90801 12.9841 1.94444 11.3151 1.94444 9.5089V8.78668C1.94444 8.52858 1.80677 8.29016 1.58333 8.16119C1.35989 8.03222 1.08455 8.03222 0.861111 8.16119C0.637676 8.29016 0.5 8.52859 0.5 8.78668V9.5089C0.502257 11.1068 1.09243 12.6481 2.15789 13.8389C3.22348 15.0298 4.68988 15.787 6.27778 15.9663V19.6199H3.38889C3.13079 19.6199 2.89237 19.7576 2.7634 19.981C2.63443 20.2045 2.63443 20.4798 2.7634 20.7033C2.89237 20.9267 3.1308 21.0644 3.38889 21.0644H10.6111C10.8692 21.0644 11.1076 20.9267 11.2366 20.7033C11.3656 20.4798 11.3656 20.2045 11.2366 19.981C11.1076 19.7576 10.8692 19.6199 10.6111 19.6199H7.72222V15.9663C9.31016 15.787 10.7765 15.0298 11.8421 13.8389C12.9075 12.6481 13.4977 11.1067 13.5 9.5089V8.78668C13.5 8.59516 13.4239 8.41138 13.2885 8.27596C13.1531 8.14055 12.9693 8.06445 12.7778 8.06445V8.06445Z" fill="#CFCDCD"/>
</svg>
