<svg width="13" height="18" viewBox="0 0 13 18" fill="none" xmlns="http://www.w3.org/2000/svg">
<path d="M8.34986 0.962893H3.84988C2.85535 0.962893 1.90149 1.35802 1.19823 2.06127C0.494984 2.76452 0.0998535 3.71839 0.0998535 4.71292V15.213C0.102114 16.0147 0.53063 16.7546 1.22485 17.1555C1.92106 17.5574 2.77876 17.5574 3.47484 17.1555L6.10726 15.6555L8.73969 17.1555H8.73981C9.43416 17.5492 10.285 17.5457 10.976 17.1462C11.6669 16.7468 12.0946 16.0111 12.0999 15.213V4.71292C12.0999 3.71839 11.7047 2.76452 11.0015 2.06127C10.2982 1.35802 9.34435 0.962891 8.34983 0.962891L8.34986 0.962893ZM8.34986 6.96297H3.84988C3.58194 6.96297 3.33434 6.81996 3.20037 6.58793C3.0664 6.3559 3.0664 6.07002 3.20037 5.83798C3.33434 5.60594 3.58194 5.46294 3.84988 5.46294H8.34986C8.6178 5.46294 8.8654 5.60595 8.99937 5.83798C9.13334 6.07001 9.13334 6.35589 8.99937 6.58793C8.8654 6.81997 8.6178 6.96297 8.34986 6.96297Z" fill="url(#paint0_linear_347_1047)"/>
<defs>
<linearGradient id="paint0_linear_347_1047" x1="6.09985" y1="0.962891" x2="6.09985" y2="17.4569" gradientUnits="userSpaceOnUse">
<stop stop-color="white"/>
<stop offset="1" stop-color="white"/>
</linearGradient>
</defs>
</svg>
