<svg width="21" height="18" viewBox="0 0 21 18" fill="none" xmlns="http://www.w3.org/2000/svg">
<path d="M6.92178 0.794922L5.89622 3.35904H2.30655C1.31209 3.35904 0.511719 4.15959 0.511719 5.15387V15.4103C0.511719 16.4048 1.31227 17.2052 2.30655 17.2052H18.7169C19.7113 17.2052 20.5117 16.4046 20.5117 15.4103V5.15387C20.5117 4.15941 19.7112 3.35904 18.7169 3.35904H15.1272L14.1017 0.794922H6.92178ZM10.5114 6.17956C12.7772 6.17956 14.6141 8.01643 14.6141 10.2822C14.6141 12.548 12.7774 14.3849 10.5114 14.3849C8.24568 14.3849 6.40877 12.548 6.40877 10.2822C6.40877 8.01643 8.24564 6.17956 10.5114 6.17956Z" fill="#CFCDCD"/>
</svg>
