<svg width="17" height="16" viewBox="0 0 17 16" fill="none" xmlns="http://www.w3.org/2000/svg">
<path fill-rule="evenodd" clip-rule="evenodd" d="M4.85997 13.5398C4.80514 13.5168 4.74629 13.5051 4.68676 13.5052C4.654 13.5052 4.62124 13.5088 4.58917 13.5159L2.2505 14.0317L3.05612 12.9882H3.056C3.12588 12.8977 3.15876 12.7842 3.14807 12.6705C3.13726 12.5567 3.0837 12.4513 2.99818 12.3756C1.74372 11.2652 0.95258 9.724 0.781681 8.05748C0.610765 6.39095 1.07259 4.72101 2.07557 3.37924C3.07854 2.03754 4.54931 1.12181 6.19621 0.813882C7.84284 0.50607 9.54503 0.828595 10.9651 1.71731C12.3852 2.60614 13.419 3.99634 13.8618 5.61196C14.3045 7.22755 14.1236 8.95049 13.355 10.4391C12.5864 11.9277 11.2863 13.0728 9.71252 13.6473C8.13897 14.2218 6.40695 14.1838 4.86009 13.5407L4.85997 13.5398ZM16.601 10.8799C16.8324 9.90869 16.7877 8.89215 16.4721 7.94494C16.1563 6.99773 15.5821 6.15763 14.8143 5.51947C15.2883 7.43425 14.9999 9.45826 14.0101 11.1646C13.0204 12.8709 11.4066 14.1259 9.50905 14.6653C9.71847 14.7433 9.9325 14.8084 10.1498 14.8598C10.8364 15.0236 11.5485 15.0496 12.2451 14.936C12.3367 14.9212 12.4306 14.9348 12.5143 14.9748L14.0562 15.7194L13.7098 14.9571C13.6625 14.8527 13.6567 14.7342 13.6936 14.6257C13.7304 14.5171 13.8073 14.4268 13.9085 14.3728C14.5792 14.0147 15.166 13.518 15.6303 12.9159C16.0944 12.3137 16.4254 11.6197 16.601 10.8799L16.601 10.8799Z" fill="url(#paint0_linear_347_1044)"/>
<defs>
<linearGradient id="paint0_linear_347_1044" x1="8.74683" y1="0.700195" x2="8.74683" y2="15.7194" gradientUnits="userSpaceOnUse">
<stop stop-color="white"/>
<stop offset="1" stop-color="white"/>
</linearGradient>
</defs>
</svg>
