<svg width="21" height="20" viewBox="0 0 21 20" fill="none" xmlns="http://www.w3.org/2000/svg">
<path d="M10.9985 0C8.34637 0 5.80277 1.05358 3.92752 2.92898C2.05212 4.80438 0.998535 7.34793 0.998535 10C0.998535 12.6521 2.05212 15.1958 3.92752 17.071C5.80291 18.9464 8.34646 20 10.9985 20C13.6506 20 16.1943 18.9464 18.0696 17.071C19.945 15.1956 20.9985 12.6521 20.9985 10C20.9985 7.34793 19.945 4.80424 18.0696 2.92898C16.1942 1.05358 13.6506 0 10.9985 0ZM6.55411 7.77769C6.55411 7.48305 6.67111 7.2005 6.87945 6.99216C7.08778 6.78364 7.3705 6.66664 7.66517 6.66664C7.95984 6.66664 8.24256 6.78364 8.45089 6.99216C8.65923 7.2005 8.77623 7.48307 8.77623 7.77769C8.77623 8.07253 8.65923 8.35508 8.45089 8.56342C8.24256 8.77175 7.95984 8.88894 7.66517 8.88894C7.3705 8.88894 7.08778 8.77175 6.87945 8.56342C6.67111 8.35508 6.55411 8.07251 6.55411 7.77769ZM14.7209 13.722V13.7222C13.6844 14.6002 12.3557 15.0563 10.9985 14.9999C9.64138 15.0563 8.3127 14.6002 7.27621 13.7222C7.08592 13.5031 7.09616 13.1744 7.30002 12.9675C7.50371 12.7609 7.83241 12.746 8.05413 12.9333C8.88452 13.6035 9.93286 13.9438 10.9985 13.8889C12.0642 13.9437 13.1126 13.6035 13.9429 12.9333C14.1647 12.746 14.4934 12.7609 14.697 12.9675C14.9009 13.1744 14.9111 13.5031 14.7209 13.7222V13.722ZM14.3319 8.88866C14.0373 8.88866 13.7545 8.77147 13.5462 8.56314C13.3378 8.3548 13.2208 8.07223 13.2208 7.77741C13.2208 7.48277 13.3378 7.20022 13.5462 6.99188C13.7545 6.78336 14.0372 6.66636 14.3319 6.66636C14.6266 6.66636 14.9093 6.78336 15.1176 6.99188C15.326 7.20022 15.443 7.48279 15.443 7.77741C15.443 8.07224 15.326 8.3548 15.1176 8.56314C14.9093 8.77147 14.6266 8.88866 14.3319 8.88866Z" fill="#CFCDCD"/>
</svg>
