<svg width="21" height="24" viewBox="0 0 21 24" fill="none" xmlns="http://www.w3.org/2000/svg">
<path d="M17.6526 0.792969H2.8474C2.15853 0.792969 1.49796 1.06673 1.01076 1.55373C0.523748 2.04093 0.25 2.7015 0.25 3.39037V20.5332C0.25 21.2221 0.523762 21.8827 1.01076 22.3699C1.49796 22.8569 2.15853 23.1306 2.8474 23.1306H17.6526C18.3415 23.1306 19.002 22.8569 19.4892 22.3699C19.9763 21.8827 20.25 21.2221 20.25 20.5332V3.39037C20.25 2.7015 19.9762 2.04093 19.4892 1.55373C19.002 1.06672 18.3415 0.792969 17.6526 0.792969ZM3.88636 22.0917H2.84731C2.43404 22.0917 2.03762 21.9275 1.74536 21.6353C1.45312 21.343 1.28897 20.9466 1.28897 20.5333V3.39047C1.28897 2.9772 1.45312 2.58078 1.74536 2.28853C2.03761 1.99628 2.43404 1.83213 2.84731 1.83213H3.88618L3.88636 22.0917ZM19.211 20.5331V20.5333C19.211 20.9466 19.0469 21.343 18.7547 21.6353C18.4624 21.9275 18.066 22.0917 17.6527 22.0917H4.92543L4.92525 1.83192H17.6525C18.0658 1.83192 18.4622 1.99607 18.7545 2.28831C19.0467 2.58055 19.2109 2.97699 19.2109 3.39026L19.211 20.5331Z" fill="white" stroke="white" stroke-width="0.5"/>
<path d="M11.6782 11.8036C12.4283 11.8036 13.1478 11.5056 13.6782 10.9751C14.2087 10.4446 14.5068 9.72515 14.5068 8.97506C14.5068 8.22478 14.2087 7.5053 13.6782 6.97482C13.1477 6.44449 12.4283 6.14648 11.6782 6.14648C10.9279 6.14648 10.2084 6.44453 9.67813 6.97482C9.14761 7.50534 8.84961 8.22478 8.84961 8.97506C8.85033 9.72496 9.14856 10.4441 9.67888 10.9744C10.2092 11.5047 10.9281 11.8029 11.6782 11.8036ZM11.6782 7.18554V7.18536C12.1527 7.18536 12.608 7.37397 12.9435 7.70952C13.2793 8.04525 13.4677 8.50039 13.4677 8.97506C13.4677 9.44955 13.2793 9.90488 12.9435 10.2404C12.608 10.576 12.1527 10.7646 11.6782 10.7646C11.2035 10.7646 10.7484 10.576 10.4126 10.2404C10.0771 9.90487 9.88848 9.44955 9.88848 8.97506C9.8892 8.50057 10.078 8.04579 10.4135 7.71022C10.7489 7.37485 11.2036 7.18605 11.6782 7.18536V7.18554Z" fill="white" stroke="white" stroke-width="0.5"/>
<path d="M11.6784 12.2705C10.7123 12.2439 9.75785 12.4858 8.92116 12.969C8.08429 13.4524 7.39779 14.1583 6.93814 15.0082C6.90516 15.0781 6.88832 15.1544 6.88868 15.2316V17.3666C6.88868 17.5045 6.94339 17.6366 7.04087 17.7341C7.13834 17.8313 7.27042 17.8861 7.40812 17.8861H15.9485C16.0864 17.8861 16.2184 17.8313 16.3159 17.7341C16.4132 17.6366 16.4679 17.5045 16.4679 17.3666V15.2316C16.4683 15.1544 16.4514 15.0781 16.4186 15.0082C15.9588 14.1583 15.2725 13.4524 14.4356 12.969C13.5987 12.4858 12.6443 12.2439 11.6784 12.2705H11.6784ZM15.429 16.8472H7.92756V15.3615C8.3133 14.7165 8.86444 14.1862 9.52376 13.8255C10.1831 13.4647 10.9268 13.2866 11.6782 13.3095C12.4291 13.2864 13.1727 13.4642 13.8321 13.8244C14.4914 14.1846 15.0425 14.7144 15.4288 15.3588L15.429 16.8472Z" fill="white" stroke="white" stroke-width="0.5"/>
</svg>
