<svg width="20" height="19" viewBox="0 0 20 19" fill="none" xmlns="http://www.w3.org/2000/svg">
<path d="M16.75 1.04395H3.25001C2.65327 1.04395 2.08089 1.28094 1.65901 1.70296C1.23697 2.12483 1 2.69722 1 3.29395V11.7315C1 12.3282 1.23699 12.9006 1.65901 13.3225C2.08089 13.7445 2.65327 13.9815 3.25001 13.9815H4.93751V17.3565C4.93735 17.5775 5.06668 17.778 5.26789 17.8693C5.46925 17.9604 5.70531 17.9253 5.87121 17.7795L10.2117 13.9815H16.75C17.3467 13.9815 17.9191 13.7445 18.341 13.3225C18.763 12.9006 19 12.3282 19 11.7315V3.29398C19 2.69724 18.763 2.12486 18.341 1.70298C17.9191 1.28094 17.3467 1.04397 16.75 1.04397L16.75 1.04395ZM17.875 11.7315C17.875 12.0298 17.7566 12.316 17.5456 12.5271C17.3345 12.738 17.0484 12.8565 16.75 12.8565H10C9.86347 12.8563 9.73148 12.9059 9.62883 12.996L6.06249 16.1168V13.4168C6.06124 13.107 5.80981 12.8565 5.49999 12.8565H3.24999C2.95163 12.8565 2.66551 12.738 2.45441 12.5271C2.24347 12.316 2.12497 12.0299 2.12497 11.7315V3.29398C2.12497 2.99562 2.24347 2.7095 2.45441 2.4984C2.6655 2.28746 2.95162 2.16897 3.24999 2.16897H16.75C17.0484 2.16897 17.3345 2.28746 17.5456 2.4984C17.7565 2.7095 17.875 2.99561 17.875 3.29398L17.875 11.7315Z" fill="white" stroke="white" stroke-width="0.5"/>
<path d="M12.8125 8.35645H7.75C7.4394 8.35645 7.1875 8.60835 7.1875 8.91895C7.1875 9.22955 7.4394 9.48145 7.75 9.48145H12.8125C13.1231 9.48145 13.375 9.22955 13.375 8.91895C13.375 8.60835 13.1231 8.35645 12.8125 8.35645Z" fill="white" stroke="white" stroke-width="0.5"/>
<path d="M12.8125 5.54395H7.75C7.4394 5.54395 7.1875 5.79585 7.1875 6.10645C7.1875 6.41705 7.4394 6.66895 7.75 6.66895H12.8125C13.1231 6.66895 13.375 6.41705 13.375 6.10645C13.375 5.79585 13.1231 5.54395 12.8125 5.54395Z" fill="white" stroke="white" stroke-width="0.5"/>
</svg>
