<svg width="15" height="19" viewBox="0 0 15 19" fill="none" xmlns="http://www.w3.org/2000/svg">
<path d="M11.8603 5.30362C11.8603 2.97747 9.96484 1.06055 7.61718 1.06055C5.26952 1.06055 3.37408 2.95597 3.37408 5.30362C3.37408 7.65127 5.26952 9.54669 7.61718 9.54669C9.96484 9.54669 11.8603 7.65127 11.8603 5.30362ZM4.45101 5.30362C4.45101 3.55904 5.87259 2.13747 7.61718 2.13747C9.36176 2.13747 10.7833 3.55904 10.7833 5.30362C10.7833 7.04819 9.36176 8.46977 7.61718 8.46977C5.87259 8.46977 4.45101 7.04819 4.45101 5.30362Z" fill="white" stroke="white" stroke-width="0.5"/>
<path d="M0.617188 17.3653C0.617188 17.6669 0.854118 17.9038 1.15565 17.9038C1.45718 17.9038 1.69411 17.6669 1.69411 17.3653C1.69411 13.747 4.23557 11.0115 7.61719 11.0115C10.9988 11.0115 13.5403 13.7469 13.5403 17.3653C13.5403 17.6669 13.7772 17.9038 14.0787 17.9038C14.3803 17.9038 14.6172 17.6669 14.6172 17.3653C14.6172 13.2084 11.5373 9.93457 7.61719 9.93457C3.69711 9.93457 0.617188 13.1868 0.617188 17.3653Z" fill="white" stroke="white" stroke-width="0.5"/>
</svg>
