<svg width="18" height="21" viewBox="0 0 18 21" fill="none" xmlns="http://www.w3.org/2000/svg">
<path fill-rule="evenodd" clip-rule="evenodd" d="M17.9987 7.73237C17.9987 6.78772 17.5544 5.89864 16.7996 5.33266L10.7999 0.832437C9.73269 0.0324169 8.2664 0.0324169 7.19918 0.832437L1.19946 5.33266C0.444648 5.89864 0.000368822 6.78772 -0.000488281 7.73237L0.000348733 17.7313C-0.000488271 19.3883 1.34343 20.7315 2.99987 20.7315H14.9993C16.6556 20.7315 17.9995 19.3883 17.9995 17.7313L17.9987 7.73237ZM15.9987 7.73237L15.9997 17.7313C15.9997 18.2843 15.5517 18.7314 14.9993 18.7314H2.99986C2.44742 18.7314 1.99945 18.2843 1.99945 17.7313C2.00029 17.7313 1.99945 7.73237 1.99945 7.73237C2.00029 7.41783 2.14811 7.12134 2.39938 6.93252C2.40021 6.93252 8.3991 2.43188 8.3991 2.43188C8.75483 2.16587 9.24416 2.16587 9.5999 2.43188L15.5988 6.93252C15.851 7.12135 15.9987 7.41782 15.9987 7.73237H15.9987Z" fill="white"/>
</svg>
