<svg width="13" height="23" viewBox="0 0 13 23" fill="none" xmlns="http://www.w3.org/2000/svg">
<path d="M11.4365 12.6748H10.8467H9.33125H7.29922H5.13588H3.23299H1.97803H1.72403C1.3129 12.677 0.91897 12.8858 0.716613 13.2517C0.512119 13.622 0.52288 14.0826 0.761816 14.4378C0.813478 14.5153 0.865139 14.5906 0.916801 14.666C1.16865 15.0384 1.42267 15.4108 1.67451 15.7832C2.05121 16.3364 2.42792 16.8917 2.80245 17.445C3.205 18.0391 3.60967 18.6332 4.01218 19.2273C4.35229 19.7267 4.69026 20.2282 5.03034 20.7276C5.21331 20.9988 5.39843 21.2701 5.5814 21.5413C5.75146 21.7932 5.97317 21.9933 6.27452 22.0708C6.76744 22.1978 7.24316 21.9847 7.52731 21.5779C7.68014 21.3583 7.82867 21.1345 7.97934 20.9128C8.30007 20.4392 8.62081 19.9678 8.94153 19.4942C9.34191 18.9023 9.74442 18.3125 10.1448 17.7205C10.5301 17.1544 10.9154 16.5861 11.2986 16.02C11.5762 15.611 11.8539 15.1999 12.1316 14.7909C12.3404 14.483 12.5707 14.1967 12.5621 13.7985C12.56 13.1764 12.052 12.6857 11.4363 12.6749C11.2103 12.6706 10.9951 12.8751 11.0058 13.1054C11.0166 13.3422 11.1952 13.5316 11.4363 13.5359C11.4557 13.5359 11.5031 13.5467 11.5203 13.5402C11.5009 13.5381 11.4794 13.5359 11.46 13.5338C11.4772 13.5381 11.4945 13.5402 11.5117 13.5446C11.531 13.551 11.5655 13.5682 11.5849 13.5682C11.5138 13.5682 11.516 13.5359 11.5741 13.5682C11.5935 13.579 11.6172 13.6027 11.6365 13.6091C11.5655 13.5876 11.5806 13.5618 11.6236 13.6048C11.6387 13.6177 11.6559 13.65 11.6731 13.6586C11.6322 13.6027 11.6236 13.5941 11.6494 13.6307C11.658 13.6436 11.6667 13.6586 11.6753 13.6716C11.686 13.6909 11.6946 13.7189 11.7076 13.7361C11.6516 13.6629 11.6839 13.6759 11.6968 13.7254C11.7032 13.7447 11.7032 13.7792 11.714 13.7964C11.6774 13.7318 11.7076 13.7125 11.7097 13.7792C11.7097 13.805 11.7097 13.8287 11.7076 13.8545C11.7054 13.9449 11.7355 13.7534 11.7076 13.8395C11.7011 13.8631 11.6925 13.889 11.686 13.9148C11.671 13.9579 11.6753 13.9471 11.6989 13.8847C11.6903 13.9019 11.6817 13.917 11.6731 13.932C11.6387 13.9923 11.5956 14.0504 11.5569 14.1085C11.3438 14.4207 11.1328 14.7349 10.9197 15.0471C10.1749 16.1449 9.4301 17.2427 8.68318 18.3405C8.09339 19.2102 7.50356 20.0798 6.91377 20.9473C6.87071 21.0119 6.82551 21.0743 6.78246 21.1389C6.78031 21.141 6.78031 21.1432 6.77816 21.1432C6.73295 21.2121 6.78892 21.1195 6.79322 21.1238C6.79538 21.126 6.73941 21.1776 6.7351 21.1819C6.67268 21.2487 6.8169 21.1346 6.73725 21.1798C6.71573 21.1927 6.69205 21.2056 6.67053 21.2185C6.62963 21.2379 6.64039 21.2336 6.70281 21.2056C6.68775 21.2121 6.67053 21.2164 6.65331 21.2228C6.63608 21.2271 6.59304 21.2293 6.57796 21.2401C6.59949 21.2379 6.62102 21.2336 6.64254 21.2314C6.62532 21.2336 6.6081 21.2336 6.59088 21.2357H6.53922C6.53061 21.2357 6.522 21.2357 6.51339 21.2336C6.46603 21.2293 6.47894 21.2314 6.55213 21.2401C6.53706 21.2293 6.49616 21.2271 6.47679 21.2228C6.3993 21.1992 6.45957 21.1905 6.48325 21.2293C6.47679 21.2164 6.42728 21.2013 6.41437 21.1927C6.3993 21.1841 6.38423 21.1733 6.37131 21.1626C6.42297 21.2035 6.43158 21.2099 6.39714 21.1798C6.39284 21.1755 6.33687 21.1238 6.33902 21.1217C6.34333 21.1174 6.39929 21.2099 6.35409 21.141L6.35194 21.1389C6.34763 21.1324 6.34333 21.126 6.33902 21.1195C6.3175 21.0894 6.29812 21.0592 6.27875 21.0291C6.19695 20.9086 6.11516 20.788 6.03336 20.6675C5.36606 19.6859 4.69877 18.7022 4.0336 17.7206C3.33403 16.6895 2.63226 15.6563 1.93269 14.6252C1.78846 14.4121 1.64209 14.2011 1.50003 13.988C1.49787 13.9837 1.49572 13.9815 1.49357 13.9772C1.48065 13.9579 1.47635 13.9514 1.46343 13.9299C1.45913 13.9213 1.45482 13.9148 1.45052 13.9062C1.43114 13.8653 1.4333 13.8739 1.46128 13.9363C1.46343 13.9234 1.44191 13.8761 1.4376 13.861C1.40747 13.7448 1.4333 13.9234 1.4333 13.8502C1.4333 13.8244 1.43114 13.8007 1.43114 13.7749C1.4333 13.706 1.46343 13.7275 1.42684 13.7921C1.4376 13.7749 1.4376 13.7404 1.44406 13.7211C1.45913 13.6716 1.49141 13.6586 1.4333 13.7318C1.45267 13.706 1.49787 13.635 1.50648 13.6048C1.48926 13.6716 1.45698 13.6651 1.50218 13.6156C1.51294 13.6027 1.52586 13.5919 1.53662 13.5812C1.57106 13.551 1.5603 13.5596 1.50648 13.6005C1.52586 13.5941 1.55169 13.5704 1.56891 13.5596C1.62488 13.5273 1.62703 13.5596 1.55814 13.5596C1.57752 13.5596 1.61196 13.5403 1.63133 13.5359C1.63994 13.5338 1.64855 13.5316 1.65716 13.5295C1.70237 13.5209 1.69161 13.5209 1.62272 13.5316C1.64425 13.5403 1.68515 13.5273 1.71098 13.5273H1.77771H4.36296H8.50221H11.2962H11.4362C11.6622 13.5273 11.8774 13.3293 11.8667 13.0968C11.8559 12.8708 11.6773 12.6749 11.4362 12.6749L11.4365 12.6748Z" fill="white" stroke="white" stroke-width="0.7"/>
<path d="M11.4369 9.42868H9.41346H5.31515H2.10137H1.77202H1.71175H1.7096C1.70099 9.42868 1.72682 9.43083 1.68162 9.42868C1.67301 9.42868 1.66225 9.42868 1.65363 9.42653C1.60628 9.42222 1.61704 9.42438 1.68808 9.43083C1.68162 9.42222 1.6235 9.41577 1.61058 9.41146C1.53094 9.38778 1.59551 9.37917 1.61919 9.41792C1.61273 9.40715 1.56538 9.38993 1.55246 9.38132C1.4556 9.32105 1.58906 9.42438 1.5417 9.37271L1.49004 9.32105C1.42761 9.25863 1.5417 9.405 1.4965 9.32966C1.48358 9.30814 1.47066 9.28876 1.4599 9.26724C1.42546 9.20266 1.46851 9.22204 1.46421 9.28015C1.46636 9.26293 1.44699 9.22849 1.44268 9.20912C1.42977 9.1553 1.45344 9.13378 1.44053 9.22634C1.44268 9.20481 1.43622 9.17468 1.43622 9.15315C1.43622 9.13593 1.43622 9.12086 1.43838 9.10364C1.44268 9.05629 1.44053 9.0692 1.43192 9.14239C1.44268 9.12732 1.44483 9.08427 1.44914 9.06705C1.45129 9.05844 1.45344 9.04983 1.45775 9.04122C1.47282 8.99816 1.46851 9.00893 1.44483 9.07135C1.45129 9.07135 1.49434 8.98525 1.5008 8.97664C1.50295 8.97234 1.50726 8.96803 1.50941 8.96373C1.55892 8.89054 1.60843 8.81735 1.65794 8.74632C2.26064 7.85947 2.86338 6.97261 3.46396 6.0836C4.20442 4.99222 4.94493 3.90305 5.68544 2.81168C5.88778 2.51247 6.09228 2.21327 6.29463 1.91404C6.31401 1.88606 6.33338 1.85808 6.35275 1.82794C6.35706 1.82148 6.36136 1.81718 6.36352 1.81072C6.36352 1.81072 6.36352 1.80857 6.36567 1.80857C6.41733 1.72892 6.29894 1.87099 6.36782 1.80857C6.38074 1.79565 6.39365 1.78274 6.40657 1.76982C6.44101 1.73969 6.4324 1.74614 6.38074 1.78704C6.38719 1.78919 6.43886 1.75045 6.44747 1.74399C6.45608 1.73968 6.46253 1.73538 6.47114 1.73107C6.51204 1.7117 6.50128 1.71601 6.43886 1.74399C6.45392 1.74614 6.49698 1.72461 6.51204 1.72031C6.57231 1.70524 6.58093 1.73323 6.49913 1.71816C6.53357 1.72462 6.58954 1.716 6.62613 1.716C6.71654 1.71816 6.52496 1.69017 6.61322 1.716C6.63259 1.72246 6.69286 1.74829 6.71224 1.74614C6.69286 1.73753 6.67564 1.73107 6.65627 1.72246C6.67133 1.72892 6.6864 1.73753 6.70362 1.74614C6.71223 1.75045 6.76389 1.79134 6.77035 1.78919C6.75528 1.77843 6.74022 1.76552 6.72515 1.75475C6.73807 1.76552 6.75313 1.77843 6.76605 1.79135L6.78542 1.81072C6.81556 1.84516 6.81125 1.83655 6.77251 1.78704C6.77466 1.79135 6.78973 1.81072 6.79403 1.81933C7.24177 2.49091 7.70025 3.15608 8.15444 3.82338C8.9229 4.95565 9.69139 6.08788 10.4598 7.21798C10.7504 7.64635 11.0411 8.07256 11.3295 8.50093C11.4113 8.61932 11.4909 8.73986 11.5727 8.85826C11.5856 8.87763 11.7019 9.07136 11.7083 9.07136C11.7019 9.05414 11.6933 9.03477 11.6868 9.01755C11.6933 9.03477 11.6997 9.04984 11.704 9.06706C11.7083 9.08428 11.7126 9.12733 11.7213 9.1424C11.6868 9.09504 11.7148 9.05199 11.717 9.12733C11.717 9.15316 11.717 9.17684 11.7148 9.20267C11.7126 9.29308 11.7406 9.09935 11.717 9.18545C11.7105 9.20913 11.704 9.23281 11.6976 9.25649C11.6761 9.34259 11.7471 9.16823 11.704 9.24357C11.6911 9.2651 11.6825 9.28662 11.6696 9.30815C11.6352 9.36411 11.6201 9.33182 11.6804 9.29954C11.6631 9.30815 11.6438 9.34044 11.6309 9.35335C11.5878 9.3964 11.5706 9.37272 11.6438 9.34905C11.6244 9.3555 11.5986 9.37918 11.5813 9.38995C11.5254 9.42224 11.5232 9.38995 11.5921 9.38995C11.5727 9.38995 11.5383 9.40932 11.5189 9.41363C11.5103 9.41578 11.5017 9.41793 11.4931 9.42008C11.4479 9.42869 11.4586 9.42869 11.5275 9.41793C11.5038 9.41793 11.4565 9.42869 11.4371 9.42869C11.2111 9.433 10.9958 9.62458 11.0066 9.85923C11.0173 10.0896 11.196 10.2941 11.4371 10.2898C12.0571 10.279 12.5952 9.76452 12.5715 9.12951C12.5629 8.89057 12.479 8.67532 12.3476 8.47941C12.1539 8.19312 11.9602 7.90899 11.7664 7.62267C11.422 7.11468 11.0776 6.60668 10.731 6.09864C10.3264 5.50452 9.92381 4.90827 9.51914 4.31415C9.14889 3.76738 8.77867 3.22065 8.40627 2.67605C8.16088 2.31442 7.91335 1.95062 7.66793 1.589C7.62273 1.52228 7.57752 1.45339 7.53017 1.38666C7.24387 0.975534 6.73802 0.749481 6.24293 0.906651C5.95448 0.99706 5.74784 1.18864 5.58209 1.43189C5.51536 1.53091 5.44648 1.63208 5.37975 1.7311C5.10422 2.13577 4.83085 2.54045 4.55532 2.94729C4.17001 3.51559 3.78471 4.08385 3.39723 4.65211C2.99685 5.2419 2.59646 5.82957 2.19825 6.41936C1.87536 6.89508 1.55032 7.37297 1.22744 7.84865C1.07245 8.07682 0.915312 8.30284 0.762499 8.53318C0.523563 8.89266 0.510649 9.37914 0.738821 9.74725C0.95408 10.0938 1.32432 10.2897 1.73116 10.2918C1.99378 10.294 2.25853 10.2918 2.52114 10.2918H4.15496H6.25158H8.39556H10.2059H11.2907H11.4393C11.6653 10.2918 11.8806 10.0938 11.8698 9.86131C11.8569 9.62668 11.6782 9.42865 11.4371 9.42865L11.4369 9.42868Z" fill="white" stroke="white" stroke-width="0.7"/>
</svg>
