<svg width="24" height="22" viewBox="0 0 24 22" fill="none" xmlns="http://www.w3.org/2000/svg">
<path d="M21.3143 12.5887H20.8689V8.96841C20.8689 4.17447 17.0181 0.271484 12.2764 0.271484C7.53475 0.271484 3.68394 4.17466 3.68394 8.96841V12.5887H3.23861C1.88166 12.5887 0.75 13.6836 0.75 15.0511V19.1743C0.75 20.547 1.88166 21.6524 3.23861 21.6524H6.02061C6.30876 21.6524 6.56548 21.4271 6.56548 21.1338V13.0916C6.56548 12.8035 6.30876 12.5887 6.02061 12.5887H4.73178V8.96841C4.73178 4.75086 8.11628 1.31908 12.2762 1.31908C16.4361 1.31908 19.8206 4.75076 19.8206 8.96841V12.5887H18.5318C18.2436 12.5887 17.9869 12.8035 17.9869 13.0916V21.1338C17.9869 21.4219 18.2436 21.6524 18.5318 21.6524H21.3138C22.6707 21.6524 23.75 20.547 23.75 19.1743V15.0511C23.75 13.6836 22.6707 12.5887 21.3138 12.5887H21.3143ZM5.51792 20.6044H3.23888C2.45824 20.6044 1.79811 19.9653 1.79811 19.1742V15.0509C1.79811 14.2598 2.45824 13.6364 3.23888 13.6364H5.51792V20.6044ZM22.7024 19.1742C22.7024 19.9653 22.0947 20.6044 21.3141 20.6044H19.035V13.6363H21.3141C22.0947 13.6363 22.7024 14.2598 22.7024 15.0508V19.1742Z" fill="white" stroke="white" stroke-width="0.5"/>
</svg>
