<svg width="17" height="15" viewBox="0 0 17 15" fill="none" xmlns="http://www.w3.org/2000/svg">
<path d="M4.70722 11.2904C6.61507 13.0435 8.4911 14.2666 8.56995 14.3178C8.63169 14.3579 8.70249 14.3779 8.77316 14.3779C8.8433 14.3779 8.91331 14.3582 8.97477 14.3187C9.05371 14.268 10.9302 13.0578 12.8385 11.3108C15.4493 8.9208 16.7729 6.77595 16.7729 4.93538C16.7729 3.73853 16.2936 2.51325 15.4577 1.57375C14.5782 0.585301 13.4397 0.0410156 12.2518 0.0410156C10.8917 0.0410156 9.62792 0.635855 8.77716 1.65458C7.94485 0.635718 6.67877 0.0410156 5.29401 0.0410156C4.0957 0.0410156 2.9535 0.585574 2.0777 1.57443C1.24845 2.51063 0.772949 3.7356 0.772949 4.93542C0.772816 6.75339 2.09647 8.89134 4.70703 11.2904L4.70722 11.2904Z" fill="url(#paint0_linear_347_1042)"/>
<defs>
<linearGradient id="paint0_linear_347_1042" x1="8.77295" y1="0.0410156" x2="8.77295" y2="14.3779" gradientUnits="userSpaceOnUse">
<stop stop-color="white"/>
<stop offset="1" stop-color="white"/>
</linearGradient>
</defs>
</svg>
