<svg width="15" height="15" viewBox="0 0 15 15" fill="none" xmlns="http://www.w3.org/2000/svg">
<path d="M11.2707 7.20971C11.2707 7.07845 11.2185 6.95246 11.1257 6.85964C11.0328 6.76681 10.9069 6.71457 10.7756 6.71457H1.82879L0.783021 0.887907C0.756329 0.739875 0.785858 0.587202 0.865805 0.459662C0.945752 0.332123 1.07019 0.239034 1.21512 0.198286C1.35993 0.157667 1.51466 0.172368 1.64927 0.239678L14.4085 6.61927C14.8951 6.86259 14.8951 7.55696 14.4085 7.80028L1.64927 14.1799C1.51465 14.2472 1.35992 14.2619 1.21512 14.2213C1.07019 14.1805 0.945749 14.0874 0.865805 13.9599C0.78586 13.8324 0.756329 13.6797 0.783021 13.5316L1.82879 7.70498H10.7756C10.9069 7.70498 11.0329 7.65276 11.1257 7.55992C11.2185 7.46707 11.2707 7.34109 11.2707 7.20984V7.20971Z" fill="url(#paint0_linear_347_1046)"/>
<defs>
<linearGradient id="paint0_linear_347_1046" x1="7.77344" y1="0.175781" x2="7.77344" y2="14.2438" gradientUnits="userSpaceOnUse">
<stop stop-color="white"/>
<stop offset="1" stop-color="white"/>
</linearGradient>
</defs>
</svg>
