<svg width="15" height="18" viewBox="0 0 15 18" fill="none" xmlns="http://www.w3.org/2000/svg">
<path fill-rule="evenodd" clip-rule="evenodd" d="M7.25012 0.0976562C5.11977 0.0976562 3.57038 1.07244 2.57054 2.36148C1.58646 3.6302 1.12861 5.20648 1.12861 6.4848C1.12861 6.85173 1.13976 7.12414 1.14822 7.33085L1.15298 7.45027C1.1613 7.6726 1.15961 7.77942 1.14251 7.88524C1.10363 8.12591 0.98051 8.42242 0.488607 9.50648C0.483704 9.51728 0.479101 9.52822 0.474801 9.53928C0.119174 10.4539 0.198459 11.2953 0.621043 12.0083C1.02428 12.6887 1.70221 13.1898 2.43503 13.5553C3.90048 14.2864 5.83793 14.601 7.25012 14.601C8.66192 14.601 10.5992 14.2864 12.0646 13.5553C12.7974 13.1898 13.4753 12.6888 13.8787 12.0084C14.3014 11.2954 14.3809 10.454 14.0255 9.53942C14.0212 9.52832 14.0166 9.51733 14.0116 9.50648C13.5197 8.42242 13.3966 8.12591 13.3577 7.88524C13.3406 7.77942 13.3389 7.6726 13.3473 7.45027L13.352 7.33085C13.3605 7.12414 13.3716 6.85173 13.3716 6.4848C13.3716 5.20641 12.9135 3.63013 11.9294 2.36145C10.9295 1.07247 9.38009 0.0976562 7.25012 0.0976562ZM2.4199 6.4848C2.4199 5.47815 2.79134 4.18369 3.59087 3.1529C4.37464 2.14242 5.56319 1.38894 7.25012 1.38894C8.9366 1.38894 10.1252 2.1424 10.9091 3.15293C11.7087 4.18376 12.0803 5.47822 12.0803 6.4848C12.0803 6.8232 12.0704 7.06767 12.062 7.27347L12.0569 7.40198C12.0483 7.63084 12.0438 7.84879 12.083 8.0912C12.1557 8.54147 12.3769 9.02886 12.8193 10.0039L12.8193 10.0039L12.8279 10.0229C13.042 10.5847 12.9732 11.0037 12.7679 11.3499C12.5414 11.732 12.1073 12.091 11.4882 12.3999C10.2497 13.0177 8.52336 13.3097 7.25012 13.3097C5.97644 13.3097 4.24992 13.0177 3.01146 12.3999C2.39232 12.091 1.95832 11.732 1.7319 11.35C1.52674 11.0038 1.45801 10.5848 1.67226 10.0229L1.68089 10.0039C2.12335 9.02887 2.34452 8.54147 2.41727 8.0912C2.45643 7.84879 2.45193 7.63084 2.44336 7.40198L2.43826 7.27346C2.42987 7.06766 2.4199 6.8232 2.4199 6.4848ZM5.74282 15.8069C5.50527 15.5409 5.09713 15.5179 4.83119 15.7555C4.56525 15.993 4.54224 16.4011 4.77978 16.6671C6.16383 18.2166 8.35118 18.196 9.71949 16.6676C9.95733 16.402 9.93477 15.9938 9.6691 15.7559C9.40343 15.5181 8.99526 15.5407 8.75742 15.8063C7.89733 16.767 6.60846 16.776 5.74282 15.8069Z" fill="#C1C1C1"/>
</svg>
