<svg width="18" height="19" viewBox="0 0 18 19" fill="none" xmlns="http://www.w3.org/2000/svg">
<path d="M12.3351 11.2699H1.34881C0.613076 11.2699 0 10.6568 0 9.92108C0 9.18534 0.613076 8.57227 1.34881 8.57227H12.3597C13.0954 8.57227 13.7085 9.18534 13.7085 9.92108C13.6838 10.6568 13.0954 11.2699 12.3352 11.2699H12.3351Z" fill="#F0F0F0"/>
<path d="M7.57766 18.9701H1.34881C0.613076 18.9701 0 18.357 0 17.6213C0 16.8855 0.613076 16.2725 1.34881 16.2725H7.57766C8.3134 16.2725 8.92648 16.8855 8.92648 17.6213C8.92665 18.3814 8.31358 18.9701 7.57784 18.9701H7.57766Z" fill="#F0F0F0"/>
<path d="M16.6267 3.54528H1.34881C0.613076 3.54528 0 2.9322 0 2.19647C0 1.46073 0.613076 0.847656 1.34881 0.847656H16.6512C17.3869 0.847656 18 1.46073 18 2.19647C17.9754 2.9322 17.3869 3.54528 16.6268 3.54528H16.6267Z" fill="#F0F0F0"/>
</svg>
