<svg width="17" height="17" viewBox="0 0 17 17" fill="none" xmlns="http://www.w3.org/2000/svg">
<path d="M16.379 15.0916L13.1275 11.8676C15.5525 9.0568 15.4146 4.81321 12.7417 2.14026C11.3639 0.734802 9.51762 0.0458984 7.69892 0.0458984C5.88016 0.0458984 4.03395 0.734802 2.62859 2.14012C-0.182186 4.95089 -0.182186 9.47005 2.62859 12.2808C4.0064 13.6588 5.85266 14.3751 7.69892 14.3751C9.35238 14.3751 11.0333 13.7964 12.356 12.6391L15.6075 15.8906C15.6901 15.9734 15.828 16.0286 15.9658 16.0286C16.1036 16.0286 16.2414 15.9734 16.3515 15.8633C16.572 15.6703 16.572 15.3122 16.379 15.0917L16.379 15.0916ZM3.40005 11.4818C2.24269 10.352 1.63646 8.8089 1.63646 7.21059C1.63646 5.61229 2.2702 4.06919 3.40005 2.91188C4.55741 1.75453 6.073 1.14829 7.69876 1.14829C9.32452 1.14829 10.8402 1.78203 11.9975 2.91188C13.1273 4.06924 13.7611 5.58483 13.7611 7.21059C13.7611 8.83636 13.1273 10.352 11.9975 11.5093C10.8401 12.6392 9.29702 13.2729 7.69876 13.2729C6.1005 13.2729 4.55736 12.6392 3.40005 11.4818Z" fill="#C1C1C1"/>
</svg>
