<svg width="25" height="20" viewBox="0 0 25 20" fill="none" xmlns="http://www.w3.org/2000/svg">
<path d="M24.25 2.99C24.25 2.2535 23.9575 1.54712 23.4365 1.02635C22.9158 0.505399 22.2094 0.212891 21.4727 0.212891H3.02729C2.29061 0.212891 1.58423 0.505412 1.06346 1.02635C0.542508 1.54712 0.25 2.2535 0.25 2.99V16.9315C0.25 17.668 0.542522 18.3744 1.06346 18.8951C1.58423 19.4161 2.29061 19.7086 3.02729 19.7086H21.4727C22.2094 19.7086 22.9158 19.4161 23.4365 18.8951C23.9575 18.3744 24.25 17.668 24.25 16.9315V2.99ZM3.02738 1.72764H21.4728C21.8076 1.72764 22.1288 1.86078 22.3655 2.09747C22.6022 2.33416 22.7352 2.65521 22.7352 2.99001V9.77658L15.532 13.7481C15.386 13.8284 15.2175 13.8583 15.0526 13.8333C14.888 13.8081 14.736 13.7294 14.6206 13.6093L9.31871 8.10538V8.1052C8.94236 7.71388 8.43834 7.47014 7.89782 7.41838C7.35735 7.36643 6.81616 7.50978 6.37235 7.82238L1.76471 11.0667V2.98757C1.76524 2.65313 1.89856 2.3328 2.13525 2.09661C2.37195 1.86044 2.69263 1.72765 3.02707 1.72765L3.02738 1.72764ZM21.4728 18.1938H3.02738C2.6926 18.1938 2.37136 18.0607 2.13467 17.824C1.89797 17.5873 1.76501 17.2663 1.76501 16.9315V12.8918C1.82013 12.8703 1.87279 12.8423 1.9214 12.8085L7.24858 9.05419C7.39651 8.94993 7.57685 8.90203 7.757 8.91912C7.93716 8.9362 8.10517 9.01738 8.23075 9.14771L13.5124 14.6566C13.8588 15.0173 14.3146 15.2534 14.8089 15.3288C15.3033 15.4042 15.8085 15.3142 16.2467 15.0731L22.7353 11.5031V16.9313C22.7353 17.2661 22.6023 17.5871 22.3656 17.8238C22.1289 18.0605 21.8077 18.1936 21.4729 18.1936L21.4728 18.1938Z" fill="white"/>
<path d="M15.444 9.79211C16.2763 9.79211 17.0746 9.46155 17.663 8.87297C18.2516 8.28439 18.5823 7.48626 18.5823 6.65396C18.5823 5.82165 18.2516 5.02334 17.663 4.43476C17.0746 3.84637 16.2763 3.51562 15.444 3.51562C14.6117 3.51562 13.8134 3.84636 13.225 4.43476C12.6364 5.02334 12.3057 5.82165 12.3057 6.65396C12.3071 7.4859 12.6382 8.28335 13.2264 8.87157C13.8146 9.45979 14.612 9.79089 15.444 9.79211ZM15.444 5.02803C15.8746 5.02803 16.2874 5.19921 16.5919 5.50353C16.8964 5.80803 17.0674 6.22101 17.0674 6.65161C17.0674 7.08203 16.8964 7.49501 16.5919 7.79951C16.2874 8.10383 15.8746 8.27501 15.444 8.27501C15.0134 8.27501 14.6006 8.10383 14.2961 7.79951C13.9916 7.49501 13.8206 7.08203 13.8206 6.65161C13.822 6.22155 13.9935 5.80979 14.2977 5.50601C14.602 5.20222 15.0141 5.03141 15.444 5.03069V5.02803Z" fill="white"/>
</svg>
