<svg width="17" height="23" viewBox="0 0 17 23" fill="none" xmlns="http://www.w3.org/2000/svg">
<path d="M8.25013 1.20703C3.83828 1.20703 0.25 4.79527 0.25 9.20716C0.25 10.7718 0.635818 11.8942 1.44825 13.0952L7.79318 22.4747C7.89574 22.6263 8.067 22.7171 8.25 22.7171C8.433 22.7171 8.60426 22.6263 8.70683 22.4747L15.0518 13.0952C15.8642 11.8941 16.25 10.7718 16.25 9.20716C16.25 4.79532 12.6618 1.20703 8.24987 1.20703H8.25013ZM8.25013 2.3104C12.0656 2.3104 15.1468 5.39158 15.1468 9.20706C15.1468 10.6076 14.8714 11.3988 14.1381 12.483L8.25028 21.19L2.3625 12.483C1.62914 11.3988 1.35376 10.6076 1.35376 9.20706C1.35376 5.39158 4.43494 2.3104 8.25042 2.3104H8.25013ZM8.25013 5.06906C6.12359 5.06906 4.3881 6.80476 4.3881 8.9311C4.3881 11.0574 6.12379 12.7931 8.25013 12.7931C10.3767 12.7931 12.1122 11.0574 12.1122 8.9311C12.1122 6.80456 10.3765 5.06906 8.25013 5.06906ZM8.25013 6.17243C9.78015 6.17243 11.0088 7.40107 11.0088 8.9311C11.0088 10.4611 9.78015 11.6898 8.25013 11.6898C6.7201 11.6898 5.49146 10.4611 5.49146 8.9311C5.49146 7.40107 6.7201 6.17243 8.25013 6.17243Z" fill="white" stroke="white" stroke-width="0.5"/>
</svg>
